<svg xmlns="http://www.w3.org/2000/svg" xmlns:xlink="http://www.w3.org/1999/xlink"><defs><symbol viewBox="0 0 30 24.35" id="not"><path class="a" d="M0,7.45V20.69a3.66,3.66,0,0,0,3.66,3.66H26.34A3.66,3.66,0,0,0,30,20.69V7.45A3.48,3.48,0,0,0,26.52,4H21.64l-.11-.51A4.45,4.45,0,0,0,17.17,0H12.83A4.45,4.45,0,0,0,8.47,3.46L8.35,4H3.48A3.48,3.48,0,0,0,0,7.45Zm9-2a.75.75,0,0,0,.73-.58l.2-1.07a3,3,0,0,1,2.9-2.3h4.34a3,3,0,0,1,2.89,2.3l.25,1.09a.75.75,0,0,0,.73.58h5.47a2,2,0,0,1,2,2V20.69a2.16,2.16,0,0,1-2.16,2.16H3.66A2.16,2.16,0,0,1,1.5,20.69V7.45a2,2,0,0,1,2-2Z" /><circle class="a" cx="5.08" cy="8.67" r="1" /><path class="a" d="M15,20.5a6.3,6.3,0,1,0-6.3-6.3h0A6.31,6.31,0,0,0,15,20.5ZM15,9.4a4.8,4.8,0,1,1-4.8,4.8A4.8,4.8,0,0,1,15,9.4Z" /></symbol></defs></svg>